<svg height="682pt" viewBox="-21 -21 682.66257 682" width="682pt" xmlns="http://www.w3.org/2000/svg"><path d="m581.398438 135.664062 36.230468-62.355468c8.558594-14.730469 6.214844-32.726563-5.835937-44.777344-12.046875-12.042969-30.042969-14.394531-44.777344-5.828125l-62.351563 36.226563c-59.988281-42.460938-133.238281-62.96875-207.054687-57.820313-76.90625 5.363281-149.3125 38.371094-203.886719 92.945313-54.589844 54.59375-87.601562 127.019531-92.949218 203.949218-5.132813 73.804688 15.371093 147.019532 57.828124 206.992188l-36.230468 62.351562c-8.566406 14.734375-6.214844 32.726563 5.828125 44.777344 7.214843 7.210938 16.558593 10.945312 26.054687 10.945312 6.367188 0 12.808594-1.679687 18.722656-5.109374l62.363282-36.230469c53.925781 38.171875 118.578125 58.601562 184.707031 58.597656 7.636719 0 15.300781-.273437 22.960937-.820313 76.660157-5.492187 148.847657-38.488281 203.261719-92.902343 54.585938-54.582031 87.597657-127.003907 92.949219-203.917969 5.140625-73.820312-15.367188-147.046875-57.820312-207.023438zm-1.671876-91.082031c7.238282-4.203125 12.675782.351563 14.171876 1.847657 1.492187 1.492187 6.046874 6.933593 1.84375 14.164062l-190.207032 327.378906-25.148437-25.148437c8.730469-12.355469 13.453125-27.0625 13.453125-42.496094 0-19.726563-7.679688-38.269531-21.625-52.214844-13.953125-13.945312-32.496094-21.628906-52.21875-21.628906-15.4375 0-30.140625 4.722656-42.496094 13.453125l-25.148438-25.144531zm-294.050781 241.425781c14.285157-14.289062 36.625-18.246093 54.9375-9.648437 18.371094 8.628906 29.574219 28.324219 27.714844 48.511719-1.851563 20.058594-16.554687 37.382812-36.066406 42.4375-19.667969 5.097656-40.875-2.855469-52.359375-19.601563-13.046875-19.019531-10.507813-45.421875 5.773437-61.699219 9.167969-9.164062-9.164062 9.167969 0 0zm-259.65625 13.753907c4.925781-70.839844 35.324219-137.539063 85.597657-187.8125 50.261718-50.257813 116.9375-80.65625 187.75-85.59375 64.089843-4.472657 127.671874 12.050781 181.003906 46.6875l-254.949219 148.125c-1.875 1.09375-3.492187 2.710937-4.585937 4.585937l-148.125 254.949219c-34.628907-53.320313-51.144532-116.882813-46.691407-180.941406zm34.246094 296.3125c-7.234375 4.203125-12.675781-.347657-14.167969-1.84375-1.496094-1.496094-6.050781-6.933594-1.847656-14.167969l190.210938-327.375 25.148437 25.144531c-8.734375 12.355469-13.457031 27.058594-13.457031 42.496094 0 19.726563 7.683594 38.273437 21.628906 52.214844 13.949219 13.945312 32.492188 21.628906 52.214844 21.628906 15.441406 0 30.140625-4.722656 42.496094-13.453125l25.152343 25.152344zm553.710937-255.148438c-4.933593 70.824219-35.332031 137.515625-85.597656 187.78125-50.113281 50.113281-116.585937 80.496094-187.175781 85.554688-64.25 4.609375-128.078125-11.902344-181.578125-46.648438l254.945312-148.125c1.875-1.089843 3.503907-2.707031 4.585938-4.585937l148.128906-254.949219c34.632813 53.328125 51.148438 116.902344 46.691406 180.972656zm0 0"/><path d="m164.398438 120.039062c-40.519532 30.3125-71.734376 75.828126-95.425782 139.136719-5.675781 15.148438 18.003906 24.097657 23.695313 8.867188 21.945312-58.632813 50.367187-100.414063 86.890625-127.738281 13.007812-9.730469-2.128906-30.011719-15.160156-20.265626zm0 0"/><path d="m226.886719 100.210938c0-6.875-5.78125-12.65625-12.652344-12.65625-6.875 0-12.65625 5.78125-12.65625 12.65625 0 6.679687 5.445313 12.328124 12.101563 12.628906 7.078124.3125 13.207031-5.535156 13.207031-12.628906zm0 0"/></svg>